<svg xmlns="http://www.w3.org/2000/svg" width="1180" height="730" viewBox="0 0 1180 730" font-family="Arial, Helvetica, sans-serif">
<defs><marker id="a" viewBox="0 0 10 10" refX="9" refY="5" markerWidth="8" markerHeight="8" orient="auto"><path d="M0,0 L10,5 L0,10 z" fill="#555555"/></marker></defs>
<rect width="1180" height="730" fill="#FFFFFF"/>
<text x="40" y="45" font-size="20" font-weight="700" fill="#222222">MoMo SMS Analytics - System Architecture</text>
<rect x="240" y="80" width="900" height="140" fill="#F2F2F2" stroke="#999999" stroke-width="1.2"/><text x="250" y="100" font-size="13" font-weight="700" fill="#222222">ETL  (etl/run.py)</text>
<line x1="200" y1="155" x2="260" y2="155" stroke="#555555" stroke-width="1.3" marker-end="url(#a)"/>
<line x1="410" y1="155" x2="430" y2="155" stroke="#555555" stroke-width="1.3" marker-end="url(#a)"/>
<line x1="580" y1="155" x2="600" y2="155" stroke="#555555" stroke-width="1.3" marker-end="url(#a)"/>
<line x1="750" y1="155" x2="770" y2="155" stroke="#555555" stroke-width="1.3" marker-end="url(#a)"/>
<line x1="920" y1="155" x2="940" y2="155" stroke="#555555" stroke-width="1.3" marker-end="url(#a)"/>
<line x1="335" y1="190" x2="335" y2="300" stroke="#555555" stroke-width="1.3" stroke-dasharray="6 4" marker-end="url(#a)"/>
<line x1="845" y1="190" x2="845" y2="280" stroke="#555555" stroke-width="1.3" marker-end="url(#a)"/>
<line x1="1035" y1="190" x2="1035" y2="285" stroke="#555555" stroke-width="1.3" marker-end="url(#a)"/>
<line x1="845" y1="380" x2="845" y2="470" stroke="#555555" stroke-width="1.3" stroke-dasharray="6 4" marker-end="url(#a)"/>
<line x1="1035" y1="362" x2="1035" y2="470" stroke="#555555" stroke-width="1.3" marker-end="url(#a)"/>
<line x1="825" y1="540" x2="825" y2="620" stroke="#555555" stroke-width="1.3" stroke-dasharray="6 4" marker-end="url(#a)"/>
<line x1="1035" y1="540" x2="1035" y2="620" stroke="#555555" stroke-width="1.3" marker-end="url(#a)"/>
<line x1="630" y1="655" x2="740" y2="655" stroke="#555555" stroke-width="1.3" marker-end="url(#a)"/>
<path d="M40,110 H200 V185 Q160.0,175 120.0,185 T40,185 Z" fill="#FFFFFF" stroke="#222222" stroke-width="1.3"/><text x="120.0" y="146.5" font-size="13" font-weight="700" fill="#222222" text-anchor="middle">momo.xml</text><text x="120.0" y="163.5" font-size="11" fill="#555555" text-anchor="middle">SMS export (data/raw/)</text>
<rect x="260" y="120" width="150" height="70" rx="6" fill="#FFFFFF" stroke="#222222" stroke-width="1.3"/><text x="335.0" y="152.0" font-size="13" font-weight="700" fill="#222222" text-anchor="middle">parse_xml.py</text><text x="335.0" y="169.0" font-size="11" fill="#555555" text-anchor="middle">read SMS records</text>
<rect x="430" y="120" width="150" height="70" rx="6" fill="#FFFFFF" stroke="#222222" stroke-width="1.3"/><text x="505.0" y="152.0" font-size="13" font-weight="700" fill="#222222" text-anchor="middle">clean_normalize.py</text><text x="505.0" y="169.0" font-size="11" fill="#555555" text-anchor="middle">amounts, dates, phones</text>
<rect x="600" y="120" width="150" height="70" rx="6" fill="#FFFFFF" stroke="#222222" stroke-width="1.3"/><text x="675.0" y="152.0" font-size="13" font-weight="700" fill="#222222" text-anchor="middle">categorize.py</text><text x="675.0" y="169.0" font-size="11" fill="#555555" text-anchor="middle">transaction types</text>
<rect x="770" y="120" width="150" height="70" rx="6" fill="#FFFFFF" stroke="#222222" stroke-width="1.3"/><text x="845.0" y="152.0" font-size="13" font-weight="700" fill="#222222" text-anchor="middle">load_db.py</text><text x="845.0" y="169.0" font-size="11" fill="#555555" text-anchor="middle">save to SQLite</text>
<rect x="940" y="120" width="180" height="70" rx="6" fill="#FFFFFF" stroke="#222222" stroke-width="1.3"/><text x="1030.0" y="152.0" font-size="13" font-weight="700" fill="#222222" text-anchor="middle">export JSON</text><text x="1030.0" y="169.0" font-size="11" fill="#555555" text-anchor="middle">totals for dashboard</text>
<rect x="260" y="300" width="320" height="70" rx="6" fill="#FFFFFF" stroke="#222222" stroke-width="1.3" stroke-dasharray="6 4"/><text x="420.0" y="332.0" font-size="13" font-weight="700" fill="#222222" text-anchor="middle">Logs</text><text x="420.0" y="349.0" font-size="11" fill="#555555" text-anchor="middle">data/logs/etl.log, dead_letter/</text>
<path d="M760,290 v80 a85.0,10 0 0 0 170,0 v-80" fill="#FFFFFF" stroke="#222222" stroke-width="1.3"/><ellipse cx="845.0" cy="290" rx="85.0" ry="10" fill="#FFFFFF" stroke="#222222" stroke-width="1.3"/><text x="845.0" y="335.0" font-size="13" font-weight="700" fill="#222222" text-anchor="middle">SQLite</text><text x="845.0" y="352.0" font-size="11" fill="#555555" text-anchor="middle">data/db.sqlite3</text>
<path d="M955,285 H1115 V360 Q1075.0,350 1035.0,360 T955,360 Z" fill="#FFFFFF" stroke="#222222" stroke-width="1.3"/><text x="1035.0" y="321.5" font-size="13" font-weight="700" fill="#222222" text-anchor="middle">dashboard.json</text><text x="1035.0" y="338.5" font-size="11" fill="#555555" text-anchor="middle">data/processed/</text>
<rect x="740" y="470" width="170" height="70" rx="6" fill="#FFFFFF" stroke="#222222" stroke-width="1.3" stroke-dasharray="6 4"/><text x="825.0" y="502.0" font-size="13" font-weight="700" fill="#222222" text-anchor="middle">FastAPI (bonus)</text><text x="825.0" y="519.0" font-size="11" fill="#555555" text-anchor="middle">/transactions, /analytics</text>
<rect x="950" y="470" width="170" height="70" rx="6" fill="#FFFFFF" stroke="#222222" stroke-width="1.3"/><text x="1035.0" y="502.0" font-size="13" font-weight="700" fill="#222222" text-anchor="middle">Web server</text><text x="1035.0" y="519.0" font-size="11" fill="#555555" text-anchor="middle">python -m http.server</text>
<rect x="740" y="620" width="380" height="70" rx="6" fill="#FFFFFF" stroke="#222222" stroke-width="1.3"/><text x="930.0" y="652.0" font-size="13" font-weight="700" fill="#222222" text-anchor="middle">Dashboard</text><text x="930.0" y="669.0" font-size="11" fill="#555555" text-anchor="middle">index.html + web/chart_handler.js</text>
<rect x="480" y="625" width="150" height="60" rx="6" fill="#FFFFFF" stroke="#222222" stroke-width="1.3"/><text x="555.0" y="652.0" font-size="13" font-weight="700" fill="#222222" text-anchor="middle">User</text><text x="555.0" y="669.0" font-size="11" fill="#555555" text-anchor="middle">browser</text>
<rect x="312.0" y="237.0" width="46" height="16" fill="#FFFFFF"/><text x="335.0" y="249.0" font-size="11" fill="#555555" text-anchor="middle">errors</text>
<rect x="822.0" y="227.0" width="46" height="16" fill="#FFFFFF"/><text x="845.0" y="239.0" font-size="11" fill="#555555" text-anchor="middle">insert</text>
<rect x="1015.0" y="229.5" width="40" height="16" fill="#FFFFFF"/><text x="1035.0" y="241.5" font-size="11" fill="#555555" text-anchor="middle">write</text>
<rect x="825.0" y="417.0" width="40" height="16" fill="#FFFFFF"/><text x="845.0" y="429.0" font-size="11" fill="#555555" text-anchor="middle">query</text>
<rect x="665.0" y="647.0" width="40" height="16" fill="#FFFFFF"/><text x="685.0" y="659.0" font-size="11" fill="#555555" text-anchor="middle">opens</text>
</svg>
